<svg
  xmlns="http://www.w3.org/2000/svg"
  width="30"
  height="30"
  viewBox="0 0 30 30"
>
  <path
    data-name="Rectangle 48619"
    fill="rgba(255,255,255,0)"
    d="M0 0h30v30H0z"
  />
  <g data-name="Group 3216">
    <path
      data-name="Path 1417"
      d="M8 14.999a8.588 8.588 0 0 1 7-4 9.039 9.039 0 0 1 7 3.9"
      fill="none"
      stroke="currentColor"
      stroke-linecap="round"
      stroke-miterlimit="10"
      stroke-width="2"
    />
    <path
      data-name="Path 1418"
      d="M15.2 13.899a3.543 3.543 0 0 0-3.5 3.5 3.543 3.543 0 0 0 3.5 3.5 3.543 3.543 0 0 0 3.5-3.5 3.478 3.478 0 0 0-3.5-3.5z"
      fill="currentColor"
    />
  </g>
  <path
    data-name="Path 2172"
    d="M16.791 8.508l-.647 2.506"
    fill="none"
    stroke="currentColor"
    stroke-linecap="round"
    stroke-width="2.00094"
  />
  <path
    data-name="Line 226"
    fill="none"
    stroke="currentColor"
    stroke-linecap="round"
    stroke-miterlimit="10"
    stroke-width="2"
    d="M20.857 9.579L19.48 11.99"
  />
  <path
    data-name="Line 227"
    fill="none"
    stroke="currentColor"
    stroke-linecap="round"
    stroke-miterlimit="10"
    stroke-width="2"
    d="M24.646 12.3L22.1 14.8"
  />
</svg>
